<?xml version="1.0" encoding="UTF-8" standalone="no"?>
<!-- Created with Inkscape (http://www.inkscape.org/) -->

<svg
   version="1.1"
   id="svg1"
   width="1000"
   height="319.64001"
   viewBox="0 0 1000 319.64001"
   sodipodi:docname="trypsine_verwerking.svg"
   inkscape:version="1.3 (0e150ed, 2023-07-21)"
   xmlns:inkscape="http://www.inkscape.org/namespaces/inkscape"
   xmlns:sodipodi="http://sodipodi.sourceforge.net/DTD/sodipodi-0.dtd"
   xmlns="http://www.w3.org/2000/svg"
   xmlns:svg="http://www.w3.org/2000/svg">
  <defs
     id="defs1" />
  <sodipodi:namedview
     id="namedview1"
     pagecolor="#ffffff"
     bordercolor="#000000"
     borderopacity="0.25"
     inkscape:showpageshadow="2"
     inkscape:pageopacity="0.0"
     inkscape:pagecheckerboard="0"
     inkscape:deskcolor="#d1d1d1"
     inkscape:zoom="1.069456"
     inkscape:cx="524.09823"
     inkscape:cy="89.765264"
     inkscape:window-width="1920"
     inkscape:window-height="1139"
     inkscape:window-x="0"
     inkscape:window-y="25"
     inkscape:window-maximized="0"
     inkscape:current-layer="group-R5">
    <inkscape:page
       x="0"
       y="0"
       inkscape:label="1"
       id="page1"
       width="1000"
       height="319.64001"
       margin="0"
       bleed="0"
       inkscape:export-filename="trypsine_verwerking.png"
       inkscape:export-xdpi="96"
       inkscape:export-ydpi="96" />
  </sodipodi:namedview>
  <g
     id="g1"
     inkscape:groupmode="layer"
     inkscape:label="1">
    <g
       id="group-R5">
      <path
         id="path2"
         d="m 142.551,2121.9 h 20.398 l -10.078,161.76 H 126.23 l -28.8003,-78.24 c -7.1992,-20.4 -12.9609,-38.16 -17.0391,-54.48 h -0.7187 c -4.0821,16.8 -9.6016,34.56 -16.3203,54.48 L 35.75,2283.66 H 9.10938 L -2.17188,2121.9 H 17.75 l 4.3203,69.36 c 1.4414,24.24 2.6406,51.36 3.1211,71.52 h 0.4805 c 4.5586,-19.2 11.039,-40.08 18.7187,-62.88 l 26.1602,-77.04 h 15.8398 l 28.5584,78.48 c 8.16,22.08 14.879,42.48 20.403,61.44 h 0.718 c -0.242,-20.16 1.2,-47.28 2.399,-69.84 l 4.082,-71.04"
         style="fill:#546e7a;fill-opacity:1;fill-rule:nonzero;stroke:none"
         transform="matrix(0.13333333,0,0,-0.13333333,0,319.64)" />
      <path
         id="path3"
         d="m 278.871,2215.02 h -62.883 v 51.12 h 66.481 v 17.52 h -87.36 V 2121.9 h 90.961 v 17.52 h -70.082 v 58.32 h 62.883 v 17.28"
         style="fill:#546e7a;fill-opacity:1;fill-rule:nonzero;stroke:none"
         transform="matrix(0.13333333,0,0,-0.13333333,0,319.64)" />
      <path
         id="path4"
         d="m 373.91,2121.9 57.84,161.76 h -22.32 l -27.36,-79.92 c -7.199,-21.12 -13.922,-41.52 -18.48,-60.24 h -0.481 c -4.32,18.96 -10.32,38.64 -17.281,60.48 l -25.199,79.68 H 298.07 l 52.801,-161.76 h 23.039"
         style="fill:#546e7a;fill-opacity:1;fill-rule:nonzero;stroke:none"
         transform="matrix(0.13333333,0,0,-0.13333333,0,319.64)" />
      <path
         id="path5"
         d="m 519.109,2172.78 17.282,-50.88 h 22.32 l -55.199,161.76 H 478.309 L 423.352,2121.9 h 21.597 l 16.801,50.88 z m -53.039,16.32 15.84,46.8 c 3.121,9.84 5.762,19.68 8.16,29.28 h 0.481 c 2.398,-9.36 4.801,-18.96 8.398,-29.52 l 15.84,-46.56 H 466.07"
         style="fill:#546e7a;fill-opacity:1;fill-rule:nonzero;stroke:none"
         transform="matrix(0.13333333,0,0,-0.13333333,0,319.64)" />
      <path
         id="path6"
         d="m 628.309,2121.9 57.839,161.76 h -22.32 l -27.359,-79.92 c -7.199,-21.12 -13.918,-41.52 -18.481,-60.24 h -0.476 c -4.321,18.96 -10.321,38.64 -17.282,60.48 l -25.199,79.68 H 552.469 L 605.27,2121.9 h 23.039"
         style="fill:#546e7a;fill-opacity:1;fill-rule:nonzero;stroke:none"
         transform="matrix(0.13333333,0,0,-0.13333333,0,319.64)" />
      <path
         id="path7"
         d="m 826.789,2206.86 h -53.277 v -16.8 h 32.879 v -48.24 c -4.801,-2.4 -14.161,-4.32 -27.84,-4.32 -37.68,0 -62.403,24.24 -62.403,65.28 0,40.56 25.68,65.04 65.043,65.04 16.321,0 27.118,-3.12 35.758,-6.96 l 5.039,17.04 c -6.957,3.36 -21.597,7.44 -40.316,7.44 -54.242,0 -87.363,-35.28 -87.602,-83.52 0,-25.2 8.641,-46.8 22.559,-60.24 15.84,-15.12 36,-21.36 60.48,-21.36 21.84,0 40.321,5.52 49.68,8.88 v 77.76"
         style="fill:#546e7a;fill-opacity:1;fill-rule:nonzero;stroke:none"
         transform="matrix(0.13333333,0,0,-0.13333333,0,319.64)" />
      <path
         id="path8"
         d="m 858.711,2122.38 c 10.559,-1.2 23.039,-1.92 37.918,-1.92 31.441,0 56.402,8.16 71.519,23.28 15.122,14.88 23.282,36.48 23.282,62.88 0,26.16 -8.399,44.88 -22.801,58.08 -14.16,13.2 -35.52,20.16 -65.52,20.16 -16.558,0 -31.679,-1.44 -44.398,-3.36 z m 20.879,143.76 c 5.519,1.2 13.68,2.16 24.48,2.16 44.16,0 65.758,-24.24 65.52,-62.4 0,-43.68 -24.238,-68.64 -68.879,-68.64 -8.16,0 -15.84,0.24 -21.121,1.2 v 127.68"
         style="fill:#546e7a;fill-opacity:1;fill-rule:nonzero;stroke:none"
         transform="matrix(0.13333333,0,0,-0.13333333,0,319.64)" />
      <path
         id="path9"
         d="m 1018.55,2121.9 h 20.88 v 61.68 l 15.36,17.76 53.28,-79.44 h 24.72 l -63.12,93.12 58.56,68.64 h -25.92 l -49.44,-60.72 c -4.08,-5.28 -8.4,-11.04 -12.72,-17.28 h -0.72 v 78 h -20.88 V 2121.9"
         style="fill:#e53935;fill-opacity:1;fill-rule:nonzero;stroke:none"
         transform="matrix(0.13333333,0,0,-0.13333333,0,319.64)" />
      <path
         id="path10"
         d="m 1210.79,2121.9 57.84,161.76 h -22.32 l -27.36,-79.92 c -7.2,-21.12 -13.92,-41.52 -18.48,-60.24 h -0.48 c -4.32,18.96 -10.32,38.64 -17.28,60.48 l -25.2,79.68 h -22.56 l 52.8,-161.76 h 23.04"
         style="fill:#546e7a;fill-opacity:1;fill-rule:nonzero;stroke:none"
         transform="matrix(0.13333333,0,0,-0.13333333,0,319.64)" />
      <path
         id="path11"
         d="M 1286.15,2283.66 V 2121.9 h 20.88 v 161.76 h -20.88"
         style="fill:#546e7a;fill-opacity:1;fill-rule:nonzero;stroke:none"
         transform="matrix(0.13333333,0,0,-0.13333333,0,319.64)" />
      <path
         id="path12"
         d="m 1398.95,2121.9 v 68.88 l 54.24,92.88 h -23.76 l -23.28,-44.64 c -6.24,-12.24 -11.76,-22.8 -16.32,-33.36 h -0.48 c -5.04,11.28 -9.84,21.12 -16.08,33.36 l -22.8,44.64 h -23.76 l 51.12,-93.12 v -68.64 h 21.12"
         style="fill:#546e7a;fill-opacity:1;fill-rule:nonzero;stroke:none"
         transform="matrix(0.13333333,0,0,-0.13333333,0,319.64)" />
      <path
         id="path13"
         d="m 1460.39,2129.82 c 8.64,-5.76 25.68,-10.56 41.28,-10.56 38.16,0 56.64,21.84 56.64,46.8 0,23.76 -13.92,36.96 -41.28,47.52 -22.32,8.64 -32.16,16.08 -32.16,31.2 0,11.04 8.4,24.24 30.48,24.24 14.64,0 25.44,-4.8 30.72,-7.68 l 5.76,17.04 c -7.2,4.08 -19.2,7.92 -35.76,7.92 -31.44,0 -52.32,-18.72 -52.32,-43.92 0,-22.8 16.32,-36.48 42.72,-45.84 21.84,-8.4 30.48,-17.04 30.48,-32.16 0,-16.32 -12.48,-27.6 -33.84,-27.6 -14.4,0 -28.08,4.8 -37.44,10.56 l -5.28,-17.52"
         style="fill:#546e7a;fill-opacity:1;fill-rule:nonzero;stroke:none"
         transform="matrix(0.13333333,0,0,-0.13333333,0,319.64)" />
      <path
         id="path14"
         d="m 1709.99,2206.86 h -53.28 v -16.8 h 32.88 v -48.24 c -4.8,-2.4 -14.16,-4.32 -27.84,-4.32 -37.68,0 -62.4,24.24 -62.4,65.28 0,40.56 25.68,65.04 65.04,65.04 16.32,0 27.12,-3.12 35.76,-6.96 l 5.04,17.04 c -6.96,3.36 -21.6,7.44 -40.32,7.44 -54.24,0 -87.36,-35.28 -87.6,-83.52 0,-25.2 8.64,-46.8 22.56,-60.24 15.84,-15.12 36,-21.36 60.48,-21.36 21.84,0 40.32,5.52 49.68,8.88 v 77.76"
         style="fill:#546e7a;fill-opacity:1;fill-rule:nonzero;stroke:none"
         transform="matrix(0.13333333,0,0,-0.13333333,0,319.64)" />
      <path
         id="path15"
         d="m 1772.63,2121.9 h 21.12 v 144 h 49.44 v 17.76 h -119.76 v -17.76 h 49.2 v -144"
         style="fill:#546e7a;fill-opacity:1;fill-rule:nonzero;stroke:none"
         transform="matrix(0.13333333,0,0,-0.13333333,0,319.64)" />
      <path
         id="path16"
         d="m 1944.95,2215.02 h -62.88 v 51.12 h 66.48 v 17.52 h -87.36 V 2121.9 h 90.96 v 17.52 h -70.08 v 58.32 h 62.88 v 17.28"
         style="fill:#546e7a;fill-opacity:1;fill-rule:nonzero;stroke:none"
         transform="matrix(0.13333333,0,0,-0.13333333,0,319.64)" />
      <path
         id="path17"
         d="m 2037.11,2121.9 v 68.88 l 54.24,92.88 h -23.76 l -23.28,-44.64 c -6.24,-12.24 -11.76,-22.8 -16.32,-33.36 h -0.48 c -5.04,11.28 -9.84,21.12 -16.08,33.36 l -22.8,44.64 h -23.76 l 51.12,-93.12 v -68.64 h 21.12"
         style="fill:#546e7a;fill-opacity:1;fill-rule:nonzero;stroke:none"
         transform="matrix(0.13333333,0,0,-0.13333333,0,319.64)" />
      <path
         id="path18"
         d="M 2108.15,2283.66 V 2121.9 h 20.88 v 161.76 h -20.88"
         style="fill:#546e7a;fill-opacity:1;fill-rule:nonzero;stroke:none"
         transform="matrix(0.13333333,0,0,-0.13333333,0,319.64)" />
      <path
         id="path19"
         d="M 2165.51,2283.66 V 2121.9 h 20.88 v 161.76 h -20.88"
         style="fill:#546e7a;fill-opacity:1;fill-rule:nonzero;stroke:none"
         transform="matrix(0.13333333,0,0,-0.13333333,0,319.64)" />
      <path
         id="path20"
         d="m 2281.43,2121.9 57.84,161.76 h -22.32 l -27.36,-79.92 c -7.2,-21.12 -13.92,-41.52 -18.48,-60.24 h -0.48 c -4.32,18.96 -10.32,38.64 -17.28,60.48 l -25.2,79.68 h -22.56 l 52.8,-161.76 h 23.04"
         style="fill:#546e7a;fill-opacity:1;fill-rule:nonzero;stroke:none"
         transform="matrix(0.13333333,0,0,-0.13333333,0,319.64)" />
      <path
         id="path21"
         d="m 2356.79,2121.9 h 20.88 v 61.68 l 15.36,17.76 53.28,-79.44 h 24.72 l -63.12,93.12 58.56,68.64 h -25.92 l -49.44,-60.72 c -4.08,-5.28 -8.4,-11.04 -12.72,-17.28 h -0.72 v 78 h -20.88 V 2121.9"
         style="fill:#e53935;fill-opacity:1;fill-rule:nonzero;stroke:none"
         transform="matrix(0.13333333,0,0,-0.13333333,0,319.64)" />
      <path
         id="path22"
         d="m 2572.79,2172.78 17.28,-50.88 h 22.32 l -55.2,161.76 h -25.2 l -54.96,-161.76 h 21.6 l 16.8,50.88 z m -53.04,16.32 15.84,46.8 c 3.12,9.84 5.76,19.68 8.16,29.28 h 0.48 c 2.4,-9.36 4.8,-18.96 8.4,-29.52 l 15.84,-46.56 h -48.72"
         style="fill:#546e7a;fill-opacity:1;fill-rule:nonzero;stroke:none"
         transform="matrix(0.13333333,0,0,-0.13333333,0,319.64)" />
      <path
         id="path23"
         d="m 2719.67,2172.78 17.28,-50.88 h 22.32 l -55.2,161.76 h -25.2 l -54.96,-161.76 h 21.6 l 16.8,50.88 z m -53.04,16.32 15.84,46.8 c 3.12,9.84 5.76,19.68 8.16,29.28 h 0.48 c 2.4,-9.36 4.8,-18.96 8.4,-29.52 l 15.84,-46.56 h -48.72"
         style="fill:#546e7a;fill-opacity:1;fill-rule:nonzero;stroke:none"
         transform="matrix(0.13333333,0,0,-0.13333333,0,319.64)" />
      <path
         id="path24"
         d="m 2783.03,2121.9 h 90 v 17.52 h -69.12 v 144.24 h -20.88 V 2121.9"
         style="fill:#546e7a;fill-opacity:1;fill-rule:nonzero;stroke:none"
         transform="matrix(0.13333333,0,0,-0.13333333,0,319.64)" />
      <path
         id="path25"
         d="m 2905.91,2121.9 h 21.12 v 144 h 49.44 v 17.76 h -119.76 v -17.76 h 49.2 v -144"
         style="fill:#546e7a;fill-opacity:1;fill-rule:nonzero;stroke:none"
         transform="matrix(0.13333333,0,0,-0.13333333,0,319.64)" />
      <path
         id="path26"
         d="m 3078.23,2215.02 h -62.88 v 51.12 h 66.48 v 17.52 h -87.36 V 2121.9 h 90.96 v 17.52 h -70.08 v 58.32 h 62.88 v 17.28"
         style="fill:#546e7a;fill-opacity:1;fill-rule:nonzero;stroke:none"
         transform="matrix(0.13333333,0,0,-0.13333333,0,319.64)" />
      <path
         id="path27"
         d="m 3112.55,2121.9 h 20.88 v 70.08 h 19.68 c 18.96,-0.72 27.6,-9.12 32.4,-31.44 4.56,-20.16 8.16,-33.84 10.8,-38.64 h 21.6 c -3.36,6.24 -7.2,21.84 -12.48,44.4 -3.84,16.8 -11.28,28.32 -23.76,32.64 v 0.72 c 17.04,5.76 30.48,19.92 30.48,41.28 0,12.48 -4.56,23.52 -12.72,30.72 -10.08,9.12 -24.48,13.2 -46.8,13.2 -14.4,0 -29.52,-1.2 -40.08,-3.36 z m 20.88,144.96 c 3.36,0.96 10.56,1.92 20.64,1.92 22.08,-0.24 37.2,-9.36 37.2,-30.24 0,-18.48 -14.16,-30.72 -36.48,-30.72 h -21.36 v 59.04"
         style="fill:#e53935;fill-opacity:1;fill-rule:nonzero;stroke:none"
         transform="matrix(0.13333333,0,0,-0.13333333,0,319.64)" />
      <path
         id="path28"
         d="m 3250.07,2119.26 c 8.88,0 14.4,6.48 14.4,15.12 0,8.88 -5.76,15.12 -14.16,15.12 -8.4,0 -14.4,-6.24 -14.4,-15.12 0,-8.64 5.76,-15.12 13.92,-15.12 h 0.24"
         style="fill:#546e7a;fill-opacity:1;fill-rule:nonzero;stroke:none"
         transform="matrix(0.13333333,0,0,-0.13333333,0,319.64)" />
      <path
         id="path29"
         d="m 3299.75,2119.26 c 8.88,0 14.4,6.48 14.4,15.12 0,8.88 -5.76,15.12 -14.16,15.12 -8.4,0 -14.4,-6.24 -14.4,-15.12 0,-8.64 5.76,-15.12 13.92,-15.12 h 0.24"
         style="fill:#546e7a;fill-opacity:1;fill-rule:nonzero;stroke:none"
         transform="matrix(0.13333333,0,0,-0.13333333,0,319.64)" />
      <path
         id="path30"
         d="m 3349.43,2119.26 c 8.88,0 14.4,6.48 14.4,15.12 0,8.88 -5.76,15.12 -14.16,15.12 -8.4,0 -14.4,-6.24 -14.4,-15.12 0,-8.64 5.76,-15.12 13.92,-15.12 h 0.24"
         style="fill:#546e7a;fill-opacity:1;fill-rule:nonzero;stroke:none"
         transform="matrix(0.13333333,0,0,-0.13333333,0,319.64)" />
      <path
         id="path31"
         d="m 5562.56,2159.4 h 20.4 l -10.08,161.76 h -26.64 l -28.8,-78.24 c -7.2,-20.4 -12.96,-38.16 -17.04,-54.48 h -0.72 c -4.08,16.8 -9.6,34.56 -16.32,54.48 l -27.6,78.24 h -26.64 l -11.28,-161.76 h 19.92 l 4.32,69.36 c 1.44,24.24 2.64,51.36 3.12,71.52 h 0.48 c 4.56,-19.2 11.04,-40.08 18.72,-62.88 l 26.16,-77.04 h 15.84 l 28.56,78.48 c 8.16,22.08 14.88,42.48 20.4,61.44 h 0.72 c -0.24,-20.16 1.2,-47.28 2.4,-69.84 l 4.08,-71.04"
         style="fill:#546e7a;fill-opacity:1;fill-rule:nonzero;stroke:none"
         transform="matrix(0.13333333,0,0,-0.13333333,0,319.64)" />
      <path
         id="path32"
         d="M 5698.88,2252.52 H 5636 v 51.12 h 66.48 v 17.52 h -87.36 V 2159.4 h 90.96 v 17.52 H 5636 v 58.32 h 62.88 v 17.28"
         style="fill:#546e7a;fill-opacity:1;fill-rule:nonzero;stroke:none"
         transform="matrix(0.13333333,0,0,-0.13333333,0,319.64)" />
      <path
         id="path33"
         d="m 5793.92,2159.4 57.84,161.76 h -22.32 l -27.36,-79.92 c -7.2,-21.12 -13.92,-41.52 -18.48,-60.24 h -0.48 c -4.32,18.96 -10.32,38.64 -17.28,60.48 l -25.2,79.68 h -22.56 l 52.8,-161.76 h 23.04"
         style="fill:#546e7a;fill-opacity:1;fill-rule:nonzero;stroke:none"
         transform="matrix(0.13333333,0,0,-0.13333333,0,319.64)" />
      <path
         id="path34"
         d="m 5939.12,2210.28 17.28,-50.88 h 22.32 l -55.2,161.76 h -25.2 l -54.96,-161.76 h 21.6 l 16.8,50.88 z m -53.04,16.32 15.84,46.8 c 3.12,9.84 5.76,19.68 8.16,29.28 h 0.48 c 2.4,-9.36 4.8,-18.96 8.4,-29.52 l 15.84,-46.56 h -48.72"
         style="fill:#546e7a;fill-opacity:1;fill-rule:nonzero;stroke:none"
         transform="matrix(0.13333333,0,0,-0.13333333,0,319.64)" />
      <path
         id="path35"
         d="m 6048.32,2159.4 57.84,161.76 h -22.32 l -27.36,-79.92 c -7.2,-21.12 -13.92,-41.52 -18.48,-60.24 h -0.48 c -4.32,18.96 -10.32,38.64 -17.28,60.48 l -25.2,79.68 h -22.56 l 52.8,-161.76 h 23.04"
         style="fill:#546e7a;fill-opacity:1;fill-rule:nonzero;stroke:none"
         transform="matrix(0.13333333,0,0,-0.13333333,0,319.64)" />
      <path
         id="path36"
         d="m 6246.8,2244.36 h -53.28 v -16.8 h 32.88 v -48.24 c -4.8,-2.4 -14.16,-4.32 -27.84,-4.32 -37.68,0 -62.4,24.24 -62.4,65.28 0,40.56 25.68,65.04 65.04,65.04 16.32,0 27.12,-3.12 35.76,-6.96 l 5.04,17.04 c -6.96,3.36 -21.6,7.44 -40.32,7.44 -54.24,0 -87.36,-35.28 -87.6,-83.52 0,-25.2 8.64,-46.8 22.56,-60.24 15.84,-15.12 36,-21.36 60.48,-21.36 21.84,0 40.32,5.52 49.68,8.88 v 77.76"
         style="fill:#546e7a;fill-opacity:1;fill-rule:nonzero;stroke:none"
         transform="matrix(0.13333333,0,0,-0.13333333,0,319.64)" />
      <path
         id="path37"
         d="m 6278.72,2159.88 c 10.56,-1.2 23.04,-1.92 37.92,-1.92 31.44,0 56.4,8.16 71.52,23.28 15.12,14.88 23.28,36.48 23.28,62.88 0,26.16 -8.4,44.88 -22.8,58.08 -14.16,13.2 -35.52,20.16 -65.52,20.16 -16.56,0 -31.68,-1.44 -44.4,-3.36 z m 20.88,143.76 c 5.52,1.2 13.68,2.16 24.48,2.16 44.16,0 65.76,-24.24 65.52,-62.4 0,-43.68 -24.24,-68.64 -68.88,-68.64 -8.16,0 -15.84,0.24 -21.12,1.2 v 127.68"
         style="fill:#546e7a;fill-opacity:1;fill-rule:nonzero;stroke:none"
         transform="matrix(0.13333333,0,0,-0.13333333,0,319.64)" />
      <path
         id="path38"
         d="m 6438.56,2159.4 h 20.88 v 61.68 l 15.36,17.76 53.28,-79.44 h 24.72 l -63.12,93.12 58.56,68.64 h -25.92 l -49.44,-60.72 c -4.08,-5.28 -8.4,-11.04 -12.72,-17.28 h -0.72 v 78 h -20.88 V 2159.4"
         style="fill:#e53935;fill-opacity:1;fill-rule:nonzero;stroke:none"
         transform="matrix(0.13333333,0,0,-0.13333333,0,319.64)" />
      <path
         id="path39"
         d="m 5480.72,1871.4 57.84,161.76 h -22.32 l -27.36,-79.92 c -7.2,-21.12 -13.92,-41.52 -18.48,-60.24 h -0.48 c -4.32,18.96 -10.32,38.64 -17.28,60.48 l -25.2,79.68 h -22.56 l 52.8,-161.76 h 23.04"
         style="fill:#546e7a;fill-opacity:1;fill-rule:nonzero;stroke:none"
         transform="matrix(0.13333333,0,0,-0.13333333,0,319.64)" />
      <path
         id="path40"
         d="M 5556.08,2033.16 V 1871.4 h 20.88 v 161.76 h -20.88"
         style="fill:#546e7a;fill-opacity:1;fill-rule:nonzero;stroke:none"
         transform="matrix(0.13333333,0,0,-0.13333333,0,319.64)" />
      <path
         id="path41"
         d="m 5668.88,1871.4 v 68.88 l 54.24,92.88 h -23.76 l -23.28,-44.64 c -6.24,-12.24 -11.76,-22.8 -16.32,-33.36 h -0.48 c -5.04,11.28 -9.84,21.12 -16.08,33.36 l -22.8,44.64 h -23.76 l 51.12,-93.12 v -68.64 h 21.12"
         style="fill:#546e7a;fill-opacity:1;fill-rule:nonzero;stroke:none"
         transform="matrix(0.13333333,0,0,-0.13333333,0,319.64)" />
      <path
         id="path42"
         d="m 5730.32,1879.32 c 8.64,-5.76 25.68,-10.56 41.28,-10.56 38.16,0 56.64,21.84 56.64,46.8 0,23.76 -13.92,36.96 -41.28,47.52 -22.32,8.64 -32.16,16.08 -32.16,31.2 0,11.04 8.4,24.24 30.48,24.24 14.64,0 25.44,-4.8 30.72,-7.68 l 5.76,17.04 c -7.2,4.08 -19.2,7.92 -35.76,7.92 -31.44,0 -52.32,-18.72 -52.32,-43.92 0,-22.8 16.32,-36.48 42.72,-45.84 21.84,-8.4 30.48,-17.04 30.48,-32.16 0,-16.32 -12.48,-27.6 -33.84,-27.6 -14.4,0 -28.08,4.8 -37.44,10.56 l -5.28,-17.52"
         style="fill:#546e7a;fill-opacity:1;fill-rule:nonzero;stroke:none"
         transform="matrix(0.13333333,0,0,-0.13333333,0,319.64)" />
      <path
         id="path43"
         d="m 5979.92,1956.36 h -53.28 v -16.8 h 32.88 v -48.24 c -4.8,-2.4 -14.16,-4.32 -27.84,-4.32 -37.68,0 -62.4,24.24 -62.4,65.28 0,40.56 25.68,65.04 65.04,65.04 16.32,0 27.12,-3.12 35.76,-6.96 l 5.04,17.04 c -6.96,3.36 -21.6,7.44 -40.32,7.44 -54.24,0 -87.36,-35.28 -87.6,-83.52 0,-25.2 8.64,-46.8 22.56,-60.24 15.84,-15.12 36,-21.36 60.48,-21.36 21.84,0 40.32,5.52 49.68,8.88 v 77.76"
         style="fill:#546e7a;fill-opacity:1;fill-rule:nonzero;stroke:none"
         transform="matrix(0.13333333,0,0,-0.13333333,0,319.64)" />
      <path
         id="path44"
         d="m 6042.56,1871.4 h 21.12 v 144 h 49.44 v 17.76 h -119.76 v -17.76 h 49.2 v -144"
         style="fill:#546e7a;fill-opacity:1;fill-rule:nonzero;stroke:none"
         transform="matrix(0.13333333,0,0,-0.13333333,0,319.64)" />
      <path
         id="path45"
         d="M 6214.88,1964.52 H 6152 v 51.12 h 66.48 v 17.52 h -87.36 V 1871.4 h 90.96 v 17.52 H 6152 v 58.32 h 62.88 v 17.28"
         style="fill:#546e7a;fill-opacity:1;fill-rule:nonzero;stroke:none"
         transform="matrix(0.13333333,0,0,-0.13333333,0,319.64)" />
      <path
         id="path46"
         d="m 6307.04,1871.4 v 68.88 l 54.24,92.88 h -23.76 l -23.28,-44.64 c -6.24,-12.24 -11.76,-22.8 -16.32,-33.36 h -0.48 c -5.04,11.28 -9.84,21.12 -16.08,33.36 l -22.8,44.64 h -23.76 l 51.12,-93.12 v -68.64 h 21.12"
         style="fill:#546e7a;fill-opacity:1;fill-rule:nonzero;stroke:none"
         transform="matrix(0.13333333,0,0,-0.13333333,0,319.64)" />
      <path
         id="path47"
         d="M 6378.08,2033.16 V 1871.4 h 20.88 v 161.76 h -20.88"
         style="fill:#546e7a;fill-opacity:1;fill-rule:nonzero;stroke:none"
         transform="matrix(0.13333333,0,0,-0.13333333,0,319.64)" />
      <path
         id="path48"
         d="M 6435.44,2033.16 V 1871.4 h 20.88 v 161.76 h -20.88"
         style="fill:#546e7a;fill-opacity:1;fill-rule:nonzero;stroke:none"
         transform="matrix(0.13333333,0,0,-0.13333333,0,319.64)" />
      <path
         id="path49"
         d="m 6551.36,1871.4 57.84,161.76 h -22.32 l -27.36,-79.92 c -7.2,-21.12 -13.92,-41.52 -18.48,-60.24 h -0.48 c -4.32,18.96 -10.32,38.64 -17.28,60.48 l -25.2,79.68 h -22.56 l 52.8,-161.76 h 23.04"
         style="fill:#546e7a;fill-opacity:1;fill-rule:nonzero;stroke:none"
         transform="matrix(0.13333333,0,0,-0.13333333,0,319.64)" />
      <path
         id="path50"
         d="m 6626.72,1871.4 h 20.88 v 61.68 l 15.36,17.76 53.28,-79.44 h 24.72 l -63.12,93.12 58.56,68.64 h -25.92 l -49.44,-60.72 c -4.08,-5.28 -8.4,-11.04 -12.72,-17.28 h -0.72 v 78 h -20.88 V 1871.4"
         style="fill:#e53935;fill-opacity:1;fill-rule:nonzero;stroke:none"
         transform="matrix(0.13333333,0,0,-0.13333333,0,319.64)" />
      <path
         id="path51"
         d="m 5505.68,1634.28 17.28,-50.88 h 22.32 l -55.2,161.76 h -25.2 l -54.96,-161.76 h 21.6 l 16.8,50.88 z m -53.04,16.32 15.84,46.8 c 3.12,9.84 5.76,19.68 8.16,29.28 h 0.48 c 2.4,-9.36 4.8,-18.96 8.4,-29.52 l 15.84,-46.56 h -48.72"
         style="fill:#546e7a;fill-opacity:1;fill-rule:nonzero;stroke:none"
         transform="matrix(0.13333333,0,0,-0.13333333,0,319.64)" />
      <path
         id="path52"
         d="m 5652.56,1634.28 17.28,-50.88 h 22.32 l -55.2,161.76 h -25.2 L 5556.8,1583.4 h 21.6 l 16.8,50.88 z m -53.04,16.32 15.84,46.8 c 3.12,9.84 5.76,19.68 8.16,29.28 h 0.48 c 2.4,-9.36 4.8,-18.96 8.4,-29.52 l 15.84,-46.56 h -48.72"
         style="fill:#546e7a;fill-opacity:1;fill-rule:nonzero;stroke:none"
         transform="matrix(0.13333333,0,0,-0.13333333,0,319.64)" />
      <path
         id="path53"
         d="m 5715.92,1583.4 h 90 v 17.52 h -69.12 v 144.24 h -20.88 V 1583.4"
         style="fill:#546e7a;fill-opacity:1;fill-rule:nonzero;stroke:none"
         transform="matrix(0.13333333,0,0,-0.13333333,0,319.64)" />
      <path
         id="path54"
         d="m 5838.8,1583.4 h 21.12 v 144 h 49.44 v 17.76 H 5789.6 v -17.76 h 49.2 v -144"
         style="fill:#546e7a;fill-opacity:1;fill-rule:nonzero;stroke:none"
         transform="matrix(0.13333333,0,0,-0.13333333,0,319.64)" />
      <path
         id="path55"
         d="m 6011.12,1676.52 h -62.88 v 51.12 h 66.48 v 17.52 h -87.36 V 1583.4 h 90.96 v 17.52 h -70.08 v 58.32 h 62.88 v 17.28"
         style="fill:#546e7a;fill-opacity:1;fill-rule:nonzero;stroke:none"
         transform="matrix(0.13333333,0,0,-0.13333333,0,319.64)" />
      <path
         id="path56"
         d="m 6045.44,1583.4 h 20.88 v 70.08 H 6086 c 18.96,-0.72 27.6,-9.12 32.4,-31.44 4.56,-20.16 8.16,-33.84 10.8,-38.64 h 21.6 c -3.36,6.24 -7.2,21.84 -12.48,44.4 -3.84,16.8 -11.28,28.32 -23.76,32.64 v 0.72 c 17.04,5.76 30.48,19.92 30.48,41.28 0,12.48 -4.56,23.52 -12.72,30.72 -10.08,9.12 -24.48,13.2 -46.8,13.2 -14.4,0 -29.52,-1.2 -40.08,-3.36 z m 20.88,144.96 c 3.36,0.96 10.56,1.92 20.64,1.92 22.08,-0.24 37.2,-9.36 37.2,-30.24 0,-18.48 -14.16,-30.72 -36.48,-30.72 h -21.36 v 59.04"
         style="fill:#e53935;fill-opacity:1;fill-rule:nonzero;stroke:none"
         transform="matrix(0.13333333,0,0,-0.13333333,0,319.64)" />
      <path
         id="path57"
         d="m 5430.56,1292.76 c 8.88,0 14.4,6.48 14.4,15.12 0,8.88 -5.76,15.12 -14.16,15.12 -8.4,0 -14.4,-6.24 -14.4,-15.12 0,-8.64 5.76,-15.12 13.92,-15.12 h 0.24"
         style="fill:#546e7a;fill-opacity:1;fill-rule:nonzero;stroke:none"
         transform="matrix(0.13333333,0,0,-0.13333333,0,319.64)" />
      <path
         id="path58"
         d="m 5480.24,1292.76 c 8.88,0 14.4,6.48 14.4,15.12 0,8.88 -5.76,15.12 -14.16,15.12 -8.4,0 -14.4,-6.24 -14.4,-15.12 0,-8.64 5.76,-15.12 13.92,-15.12 h 0.24"
         style="fill:#546e7a;fill-opacity:1;fill-rule:nonzero;stroke:none"
         transform="matrix(0.13333333,0,0,-0.13333333,0,319.64)" />
      <path
         id="path59"
         d="m 5529.92,1292.76 c 8.88,0 14.4,6.48 14.4,15.12 0,8.88 -5.76,15.12 -14.16,15.12 -8.4,0 -14.4,-6.24 -14.4,-15.12 0,-8.64 5.76,-15.12 13.92,-15.12 h 0.24"
         style="fill:#546e7a;fill-opacity:1;fill-rule:nonzero;stroke:none"
         transform="matrix(0.13333333,0,0,-0.13333333,0,319.64)" />
      <path
         id="path60"
         d="m 142.551,569.398 h 20.398 L 152.871,731.16 H 126.23 L 97.4297,652.922 C 90.2305,632.52 84.4688,614.762 80.3906,598.441 H 79.6719 C 75.5898,615.238 70.0703,633 63.3516,652.922 L 35.75,731.16 H 9.10938 L -2.17188,569.398 H 17.75 l 4.3203,69.364 c 1.4414,24.238 2.6406,51.359 3.1211,71.519 h 0.4805 c 4.5586,-19.203 11.039,-40.082 18.7187,-62.883 l 26.1602,-77.039 h 15.8398 l 28.5584,78.481 c 8.16,22.082 14.879,42.48 20.403,61.441 h 0.718 c -0.242,-20.16 1.2,-47.281 2.399,-69.84 l 4.082,-71.043"
         style="fill:#546e7a;fill-opacity:1;fill-rule:nonzero;stroke:none"
         transform="matrix(0.13333333,0,0,-0.13333333,0,319.64)" />
      <path
         id="path61"
         d="m 278.871,662.52 h -62.883 v 51.121 h 66.481 v 17.519 h -87.36 V 569.398 h 90.961 v 17.524 h -70.082 v 58.316 h 62.883 v 17.282"
         style="fill:#546e7a;fill-opacity:1;fill-rule:nonzero;stroke:none"
         transform="matrix(0.13333333,0,0,-0.13333333,0,319.64)" />
      <path
         id="path62"
         d="M 373.91,569.398 431.75,731.16 H 409.43 L 382.07,651.238 C 374.871,630.121 368.148,609.719 363.59,591 h -0.481 c -4.32,18.961 -10.32,38.641 -17.281,60.48 l -25.199,79.68 H 298.07 l 52.801,-161.762 h 23.039"
         style="fill:#546e7a;fill-opacity:1;fill-rule:nonzero;stroke:none"
         transform="matrix(0.13333333,0,0,-0.13333333,0,319.64)" />
      <path
         id="path63"
         d="m 519.109,620.281 17.282,-50.883 h 22.32 L 503.512,731.16 H 478.309 L 423.352,569.398 h 21.597 l 16.801,50.883 z m -53.039,16.321 15.84,46.796 c 3.121,9.84 5.762,19.68 8.16,29.282 h 0.481 c 2.398,-9.36 4.801,-18.961 8.398,-29.52 l 15.84,-46.558 H 466.07"
         style="fill:#546e7a;fill-opacity:1;fill-rule:nonzero;stroke:none"
         transform="matrix(0.13333333,0,0,-0.13333333,0,319.64)" />
      <path
         id="path64"
         d="m 628.309,569.398 57.839,161.762 h -22.32 L 636.469,651.238 C 629.27,630.121 622.551,609.719 617.988,591 h -0.476 c -4.321,18.961 -10.321,38.641 -17.282,60.48 l -25.199,79.68 H 552.469 L 605.27,569.398 h 23.039"
         style="fill:#546e7a;fill-opacity:1;fill-rule:nonzero;stroke:none"
         transform="matrix(0.13333333,0,0,-0.13333333,0,319.64)" />
      <path
         id="path65"
         d="m 826.789,654.359 h -53.277 v -16.8 h 32.879 V 589.32 C 801.59,586.922 792.23,585 778.551,585 c -37.68,0 -62.403,24.238 -62.403,65.281 0,40.559 25.68,65.039 65.043,65.039 16.321,0 27.118,-3.121 35.758,-6.961 l 5.039,17.039 c -6.957,3.364 -21.597,7.442 -40.316,7.442 -54.242,0 -87.363,-35.281 -87.602,-83.52 0,-25.199 8.641,-46.8 22.559,-60.242 15.84,-15.117 36,-21.359 60.48,-21.359 21.84,0 40.321,5.519 49.68,8.883 v 77.757"
         style="fill:#546e7a;fill-opacity:1;fill-rule:nonzero;stroke:none"
         transform="matrix(0.13333333,0,0,-0.13333333,0,319.64)" />
      <path
         id="path66"
         d="m 858.711,569.879 c 10.559,-1.199 23.039,-1.918 37.918,-1.918 31.441,0 56.402,8.16 71.519,23.277 15.122,14.883 23.282,36.481 23.282,62.883 0,26.16 -8.399,44.879 -22.801,58.078 -14.16,13.199 -35.52,20.16 -65.52,20.16 -16.558,0 -31.679,-1.437 -44.398,-3.359 z m 20.879,143.762 c 5.519,1.199 13.68,2.16 24.48,2.16 44.16,0 65.758,-24.242 65.52,-62.403 0,-43.679 -24.238,-68.636 -68.879,-68.636 -8.16,0 -15.84,0.238 -21.121,1.199 v 127.68"
         style="fill:#546e7a;fill-opacity:1;fill-rule:nonzero;stroke:none"
         transform="matrix(0.13333333,0,0,-0.13333333,0,319.64)" />
      <path
         id="path67"
         d="m 1018.55,569.398 h 20.88 v 61.68 l 15.36,17.762 53.28,-79.442 h 24.72 l -63.12,93.122 58.56,68.64 h -25.92 l -49.44,-60.719 c -4.08,-5.281 -8.4,-11.043 -12.72,-17.281 h -0.72 v 78 h -20.88 V 569.398"
         style="fill:#e53935;fill-opacity:1;fill-rule:nonzero;stroke:none"
         transform="matrix(0.13333333,0,0,-0.13333333,0,319.64)" />
      <path
         id="path68"
         d="m 1210.79,569.398 57.84,161.762 h -22.32 l -27.36,-79.922 c -7.2,-21.117 -13.92,-41.519 -18.48,-60.238 h -0.48 c -4.32,18.961 -10.32,38.641 -17.28,60.48 l -25.2,79.68 h -22.56 l 52.8,-161.762 h 23.04"
         style="fill:#546e7a;fill-opacity:1;fill-rule:nonzero;stroke:none"
         transform="matrix(0.13333333,0,0,-0.13333333,0,319.64)" />
      <path
         id="path69"
         d="M 1286.15,731.16 V 569.398 h 20.88 V 731.16 h -20.88"
         style="fill:#546e7a;fill-opacity:1;fill-rule:nonzero;stroke:none"
         transform="matrix(0.13333333,0,0,-0.13333333,0,319.64)" />
      <path
         id="path70"
         d="m 1398.95,569.398 v 68.883 l 54.24,92.879 h -23.76 l -23.28,-44.64 c -6.24,-12.239 -11.76,-22.801 -16.32,-33.36 h -0.48 c -5.04,11.281 -9.84,21.121 -16.08,33.36 l -22.8,44.64 h -23.76 l 51.12,-93.121 v -68.641 h 21.12"
         style="fill:#546e7a;fill-opacity:1;fill-rule:nonzero;stroke:none"
         transform="matrix(0.13333333,0,0,-0.13333333,0,319.64)" />
      <path
         id="path71"
         d="m 1460.39,577.32 c 8.64,-5.761 25.68,-10.558 41.28,-10.558 38.16,0 56.64,21.84 56.64,46.797 0,23.761 -13.92,36.961 -41.28,47.519 -22.32,8.641 -32.16,16.082 -32.16,31.203 0,11.039 8.4,24.239 30.48,24.239 14.64,0 25.44,-4.801 30.72,-7.68 l 5.76,17.039 c -7.2,4.082 -19.2,7.922 -35.76,7.922 -31.44,0 -52.32,-18.723 -52.32,-43.922 0,-22.801 16.32,-36.481 42.72,-45.84 21.84,-8.398 30.48,-17.039 30.48,-32.16 0,-16.32 -12.48,-27.598 -33.84,-27.598 -14.4,0 -28.08,4.797 -37.44,10.559 l -5.28,-17.52"
         style="fill:#546e7a;fill-opacity:1;fill-rule:nonzero;stroke:none"
         transform="matrix(0.13333333,0,0,-0.13333333,0,319.64)" />
      <path
         id="path72"
         d="m 1709.99,654.359 h -53.28 v -16.8 h 32.88 V 589.32 c -4.8,-2.398 -14.16,-4.32 -27.84,-4.32 -37.68,0 -62.4,24.238 -62.4,65.281 0,40.559 25.68,65.039 65.04,65.039 16.32,0 27.12,-3.121 35.76,-6.961 l 5.04,17.039 c -6.96,3.364 -21.6,7.442 -40.32,7.442 -54.24,0 -87.36,-35.281 -87.6,-83.52 0,-25.199 8.64,-46.8 22.56,-60.242 15.84,-15.117 36,-21.359 60.48,-21.359 21.84,0 40.32,5.519 49.68,8.883 v 77.757"
         style="fill:#546e7a;fill-opacity:1;fill-rule:nonzero;stroke:none"
         transform="matrix(0.13333333,0,0,-0.13333333,0,319.64)" />
      <path
         id="path73"
         d="m 1772.63,569.398 h 21.12 v 144 h 49.44 v 17.762 h -119.76 v -17.762 h 49.2 v -144"
         style="fill:#546e7a;fill-opacity:1;fill-rule:nonzero;stroke:none"
         transform="matrix(0.13333333,0,0,-0.13333333,0,319.64)" />
      <path
         id="path74"
         d="m 1944.95,662.52 h -62.88 v 51.121 h 66.48 v 17.519 h -87.36 V 569.398 h 90.96 v 17.524 h -70.08 v 58.316 h 62.88 v 17.282"
         style="fill:#546e7a;fill-opacity:1;fill-rule:nonzero;stroke:none"
         transform="matrix(0.13333333,0,0,-0.13333333,0,319.64)" />
      <path
         id="path75"
         d="m 2037.11,569.398 v 68.883 l 54.24,92.879 h -23.76 l -23.28,-44.64 c -6.24,-12.239 -11.76,-22.801 -16.32,-33.36 h -0.48 c -5.04,11.281 -9.84,21.121 -16.08,33.36 l -22.8,44.64 h -23.76 l 51.12,-93.121 v -68.641 h 21.12"
         style="fill:#546e7a;fill-opacity:1;fill-rule:nonzero;stroke:none"
         transform="matrix(0.13333333,0,0,-0.13333333,0,319.64)" />
      <path
         id="path76"
         d="M 2108.15,731.16 V 569.398 h 20.88 V 731.16 h -20.88"
         style="fill:#546e7a;fill-opacity:1;fill-rule:nonzero;stroke:none"
         transform="matrix(0.13333333,0,0,-0.13333333,0,319.64)" />
      <path
         id="path77"
         d="M 2165.51,731.16 V 569.398 h 20.88 V 731.16 h -20.88"
         style="fill:#546e7a;fill-opacity:1;fill-rule:nonzero;stroke:none"
         transform="matrix(0.13333333,0,0,-0.13333333,0,319.64)" />
      <path
         id="path78"
         d="m 2281.43,569.398 57.84,161.762 h -22.32 l -27.36,-79.922 c -7.2,-21.117 -13.92,-41.519 -18.48,-60.238 h -0.48 c -4.32,18.961 -10.32,38.641 -17.28,60.48 l -25.2,79.68 h -22.56 l 52.8,-161.762 h 23.04"
         style="fill:#546e7a;fill-opacity:1;fill-rule:nonzero;stroke:none"
         transform="matrix(0.13333333,0,0,-0.13333333,0,319.64)" />
      <path
         id="path79"
         d="m 2356.79,569.398 h 20.88 v 61.68 l 15.36,17.762 53.28,-79.442 h 24.72 l -63.12,93.122 58.56,68.64 h -25.92 l -49.44,-60.719 c -4.08,-5.281 -8.4,-11.043 -12.72,-17.281 h -0.72 v 78 h -20.88 V 569.398"
         style="fill:#e53935;fill-opacity:1;fill-rule:nonzero;stroke:none"
         transform="matrix(0.13333333,0,0,-0.13333333,0,319.64)" />
      <path
         id="path80"
         d="m 2486.87,569.398 h 20.88 v 64.801 c 4.8,-1.199 10.56,-1.437 16.8,-1.437 20.4,0 38.4,6 49.44,17.758 8.16,8.402 12.48,19.921 12.48,34.558 0,14.402 -5.28,26.16 -14.16,33.844 -9.6,8.637 -24.72,13.437 -45.36,13.437 -16.8,0 -30,-1.437 -40.08,-3.121 z m 20.88,144.723 c 3.6,0.957 10.56,1.68 19.68,1.68 23.04,0 38.16,-10.321 38.16,-31.68 0,-22.32 -15.36,-34.562 -40.56,-34.562 -6.96,0 -12.72,0.48 -17.28,1.679 v 62.883"
         style="fill:#1e88e5;fill-opacity:1;fill-rule:nonzero;stroke:none"
         transform="matrix(0.13333333,0,0,-0.13333333,0,319.64)" />
      <path
         id="path81"
         d="m 2677.91,620.281 17.28,-50.883 h 22.32 l -55.2,161.762 h -25.2 l -54.96,-161.762 h 21.6 l 16.8,50.883 z m -53.04,16.321 15.84,46.796 c 3.12,9.84 5.76,19.68 8.16,29.282 h 0.48 c 2.4,-9.36 4.8,-18.961 8.4,-29.52 l 15.84,-46.558 h -48.72"
         style="fill:#546e7a;fill-opacity:1;fill-rule:nonzero;stroke:none"
         transform="matrix(0.13333333,0,0,-0.13333333,0,319.64)" />
      <path
         id="path82"
         d="m 2741.27,569.398 h 90 v 17.524 h -69.12 V 731.16 h -20.88 V 569.398"
         style="fill:#546e7a;fill-opacity:1;fill-rule:nonzero;stroke:none"
         transform="matrix(0.13333333,0,0,-0.13333333,0,319.64)" />
      <path
         id="path83"
         d="m 2864.15,569.398 h 21.12 v 144 h 49.44 v 17.762 h -119.76 v -17.762 h 49.2 v -144"
         style="fill:#546e7a;fill-opacity:1;fill-rule:nonzero;stroke:none"
         transform="matrix(0.13333333,0,0,-0.13333333,0,319.64)" />
      <path
         id="path84"
         d="m 3036.47,662.52 h -62.88 v 51.121 h 66.48 v 17.519 h -87.36 V 569.398 h 90.96 v 17.524 h -70.08 v 58.316 h 62.88 v 17.282"
         style="fill:#546e7a;fill-opacity:1;fill-rule:nonzero;stroke:none"
         transform="matrix(0.13333333,0,0,-0.13333333,0,319.64)" />
      <path
         id="path85"
         d="m 3070.79,569.398 h 20.88 v 70.082 h 19.68 c 18.96,-0.718 27.6,-9.121 32.4,-31.441 4.56,-20.16 8.16,-33.84 10.8,-38.641 h 21.6 c -3.36,6.243 -7.2,21.84 -12.48,44.403 -3.84,16.801 -11.28,28.32 -23.76,32.64 v 0.719 c 17.04,5.762 30.48,19.918 30.48,41.281 0,12.481 -4.56,23.52 -12.72,30.719 -10.08,9.121 -24.48,13.199 -46.8,13.199 -14.4,0 -29.52,-1.199 -40.08,-3.359 z m 20.88,144.961 c 3.36,0.961 10.56,1.922 20.64,1.922 22.08,-0.242 37.2,-9.359 37.2,-30.242 0,-18.48 -14.16,-30.719 -36.48,-30.719 h -21.36 v 59.039"
         style="fill:#e53935;fill-opacity:1;fill-rule:nonzero;stroke:none"
         transform="matrix(0.13333333,0,0,-0.13333333,0,319.64)" />
      <path
         id="path86"
         d="m 3208.31,566.762 c 8.88,0 14.4,6.476 14.4,15.117 0,8.883 -5.76,15.121 -14.16,15.121 -8.4,0 -14.4,-6.238 -14.4,-15.121 0,-8.641 5.76,-15.117 13.92,-15.117 h 0.24"
         style="fill:#546e7a;fill-opacity:1;fill-rule:nonzero;stroke:none"
         transform="matrix(0.13333333,0,0,-0.13333333,0,319.64)" />
      <path
         id="path87"
         d="m 3257.99,566.762 c 8.88,0 14.4,6.476 14.4,15.117 0,8.883 -5.76,15.121 -14.16,15.121 -8.4,0 -14.4,-6.238 -14.4,-15.121 0,-8.641 5.76,-15.117 13.92,-15.117 h 0.24"
         style="fill:#546e7a;fill-opacity:1;fill-rule:nonzero;stroke:none"
         transform="matrix(0.13333333,0,0,-0.13333333,0,319.64)" />
      <path
         id="path88"
         d="m 3307.67,566.762 c 8.88,0 14.4,6.476 14.4,15.117 0,8.883 -5.76,15.121 -14.16,15.121 -8.4,0 -14.4,-6.238 -14.4,-15.121 0,-8.641 5.76,-15.117 13.92,-15.117 h 0.24"
         style="fill:#546e7a;fill-opacity:1;fill-rule:nonzero;stroke:none"
         transform="matrix(0.13333333,0,0,-0.13333333,0,319.64)" />
      <path
         id="path89"
         d="m 5562.56,579.301 h 20.4 l -10.08,161.758 h -26.64 l -28.8,-78.239 c -7.2,-20.398 -12.96,-38.16 -17.04,-54.48 h -0.72 c -4.08,16.801 -9.6,34.558 -16.32,54.48 l -27.6,78.239 h -26.64 l -11.28,-161.758 h 19.92 l 4.32,69.359 c 1.44,24.238 2.64,51.36 3.12,71.52 h 0.48 c 4.56,-19.2 11.04,-40.078 18.72,-62.879 l 26.16,-77.039 h 15.84 l 28.56,78.476 c 8.16,22.082 14.88,42.481 20.4,61.442 h 0.72 c -0.24,-20.16 1.2,-47.282 2.4,-69.84 l 4.08,-71.039"
         style="fill:#546e7a;fill-opacity:1;fill-rule:nonzero;stroke:none"
         transform="matrix(0.13333333,0,0,-0.13333333,0,319.64)" />
      <path
         id="path90"
         d="M 5698.88,672.422 H 5636 v 51.117 h 66.48 v 17.52 h -87.36 V 579.301 h 90.96 V 596.82 H 5636 v 58.321 h 62.88 v 17.281"
         style="fill:#546e7a;fill-opacity:1;fill-rule:nonzero;stroke:none"
         transform="matrix(0.13333333,0,0,-0.13333333,0,319.64)" />
      <path
         id="path91"
         d="m 5793.92,579.301 57.84,161.758 h -22.32 l -27.36,-79.918 c -7.2,-21.121 -13.92,-41.52 -18.48,-60.243 h -0.48 c -4.32,18.961 -10.32,38.641 -17.28,60.481 l -25.2,79.68 h -22.56 l 52.8,-161.758 h 23.04"
         style="fill:#546e7a;fill-opacity:1;fill-rule:nonzero;stroke:none"
         transform="matrix(0.13333333,0,0,-0.13333333,0,319.64)" />
      <path
         id="path92"
         d="m 5939.12,630.18 17.28,-50.879 h 22.32 l -55.2,161.758 h -25.2 l -54.96,-161.758 h 21.6 l 16.8,50.879 z m -53.04,16.32 15.84,46.801 c 3.12,9.84 5.76,19.679 8.16,29.277 h 0.48 c 2.4,-9.359 4.8,-18.957 8.4,-29.519 L 5934.8,646.5 h -48.72"
         style="fill:#546e7a;fill-opacity:1;fill-rule:nonzero;stroke:none"
         transform="matrix(0.13333333,0,0,-0.13333333,0,319.64)" />
      <path
         id="path93"
         d="m 6048.32,579.301 57.84,161.758 h -22.32 l -27.36,-79.918 c -7.2,-21.121 -13.92,-41.52 -18.48,-60.243 h -0.48 c -4.32,18.961 -10.32,38.641 -17.28,60.481 l -25.2,79.68 h -22.56 l 52.8,-161.758 h 23.04"
         style="fill:#546e7a;fill-opacity:1;fill-rule:nonzero;stroke:none"
         transform="matrix(0.13333333,0,0,-0.13333333,0,319.64)" />
      <path
         id="path94"
         d="m 6246.8,664.262 h -53.28 v -16.801 h 32.88 v -48.242 c -4.8,-2.399 -14.16,-4.321 -27.84,-4.321 -37.68,0 -62.4,24.243 -62.4,65.282 0,40.558 25.68,65.039 65.04,65.039 16.32,0 27.12,-3.117 35.76,-6.957 l 5.04,17.039 c -6.96,3.359 -21.6,7.437 -40.32,7.437 -54.24,0 -87.36,-35.277 -87.6,-83.519 0,-25.199 8.64,-46.797 22.56,-60.239 15.84,-15.121 36,-21.359 60.48,-21.359 21.84,0 40.32,5.52 49.68,8.879 v 77.762"
         style="fill:#546e7a;fill-opacity:1;fill-rule:nonzero;stroke:none"
         transform="matrix(0.13333333,0,0,-0.13333333,0,319.64)" />
      <path
         id="path95"
         d="m 6278.72,579.781 c 10.56,-1.203 23.04,-1.922 37.92,-1.922 31.44,0 56.4,8.161 71.52,23.282 15.12,14.879 23.28,36.48 23.28,62.879 0,26.16 -8.4,44.878 -22.8,58.082 -14.16,13.199 -35.52,20.16 -65.52,20.16 -16.56,0 -31.68,-1.442 -44.4,-3.364 z m 20.88,143.758 c 5.52,1.199 13.68,2.16 24.48,2.16 44.16,0 65.76,-24.238 65.52,-62.398 0,-43.68 -24.24,-68.641 -68.88,-68.641 -8.16,0 -15.84,0.238 -21.12,1.199 v 127.68"
         style="fill:#546e7a;fill-opacity:1;fill-rule:nonzero;stroke:none"
         transform="matrix(0.13333333,0,0,-0.13333333,0,319.64)" />
      <path
         id="path96"
         d="m 6438.56,579.301 h 20.88 v 61.679 l 15.36,17.758 53.28,-79.437 h 24.72 l -63.12,93.121 58.56,68.637 h -25.92 l -49.44,-60.719 c -4.08,-5.281 -8.4,-11.039 -12.72,-17.281 h -0.72 v 78 h -20.88 V 579.301"
         style="fill:#e53935;fill-opacity:1;fill-rule:nonzero;stroke:none"
         transform="matrix(0.13333333,0,0,-0.13333333,0,319.64)" />
      <path
         id="path97"
         d="m 5480.72,291.301 57.84,161.758 h -22.32 l -27.36,-79.918 c -7.2,-21.121 -13.92,-41.52 -18.48,-60.243 h -0.48 c -4.32,18.961 -10.32,38.641 -17.28,60.481 l -25.2,79.68 h -22.56 l 52.8,-161.758 h 23.04"
         style="fill:#546e7a;fill-opacity:1;fill-rule:nonzero;stroke:none"
         transform="matrix(0.13333333,0,0,-0.13333333,0,319.64)" />
      <path
         id="path98"
         d="M 5556.08,453.059 V 291.301 h 20.88 v 161.758 h -20.88"
         style="fill:#546e7a;fill-opacity:1;fill-rule:nonzero;stroke:none"
         transform="matrix(0.13333333,0,0,-0.13333333,0,319.64)" />
      <path
         id="path99"
         d="m 5668.88,291.301 v 68.879 l 54.24,92.879 h -23.76 l -23.28,-44.637 c -6.24,-12.242 -11.76,-22.801 -16.32,-33.363 h -0.48 c -5.04,11.281 -9.84,21.121 -16.08,33.363 l -22.8,44.637 h -23.76 l 51.12,-93.118 v -68.64 h 21.12"
         style="fill:#546e7a;fill-opacity:1;fill-rule:nonzero;stroke:none"
         transform="matrix(0.13333333,0,0,-0.13333333,0,319.64)" />
      <path
         id="path100"
         d="m 5730.32,299.219 c 8.64,-5.758 25.68,-10.559 41.28,-10.559 38.16,0 56.64,21.84 56.64,46.801 0,23.758 -13.92,36.961 -41.28,47.519 -22.32,8.641 -32.16,16.079 -32.16,31.2 0,11.039 8.4,24.242 30.48,24.242 14.64,0 25.44,-4.801 30.72,-7.684 l 5.76,17.043 c -7.2,4.078 -19.2,7.918 -35.76,7.918 -31.44,0 -52.32,-18.719 -52.32,-43.918 0,-22.801 16.32,-36.48 42.72,-45.84 21.84,-8.402 30.48,-17.043 30.48,-32.16 0,-16.32 -12.48,-27.601 -33.84,-27.601 -14.4,0 -28.08,4.8 -37.44,10.558 l -5.28,-17.519"
         style="fill:#546e7a;fill-opacity:1;fill-rule:nonzero;stroke:none"
         transform="matrix(0.13333333,0,0,-0.13333333,0,319.64)" />
      <path
         id="path101"
         d="m 5979.92,376.262 h -53.28 v -16.801 h 32.88 v -48.242 c -4.8,-2.399 -14.16,-4.321 -27.84,-4.321 -37.68,0 -62.4,24.243 -62.4,65.282 0,40.558 25.68,65.039 65.04,65.039 16.32,0 27.12,-3.117 35.76,-6.957 l 5.04,17.039 c -6.96,3.359 -21.6,7.437 -40.32,7.437 -54.24,0 -87.36,-35.277 -87.6,-83.519 0,-25.199 8.64,-46.797 22.56,-60.239 15.84,-15.121 36,-21.359 60.48,-21.359 21.84,0 40.32,5.52 49.68,8.879 v 77.762"
         style="fill:#546e7a;fill-opacity:1;fill-rule:nonzero;stroke:none"
         transform="matrix(0.13333333,0,0,-0.13333333,0,319.64)" />
      <path
         id="path102"
         d="m 6042.56,291.301 h 21.12 v 144 h 49.44 v 17.758 h -119.76 v -17.758 h 49.2 v -144"
         style="fill:#546e7a;fill-opacity:1;fill-rule:nonzero;stroke:none"
         transform="matrix(0.13333333,0,0,-0.13333333,0,319.64)" />
      <path
         id="path103"
         d="M 6214.88,384.422 H 6152 v 51.117 h 66.48 v 17.52 h -87.36 V 291.301 h 90.96 V 308.82 H 6152 v 58.321 h 62.88 v 17.281"
         style="fill:#546e7a;fill-opacity:1;fill-rule:nonzero;stroke:none"
         transform="matrix(0.13333333,0,0,-0.13333333,0,319.64)" />
      <path
         id="path104"
         d="m 6307.04,291.301 v 68.879 l 54.24,92.879 h -23.76 l -23.28,-44.637 c -6.24,-12.242 -11.76,-22.801 -16.32,-33.363 h -0.48 c -5.04,11.281 -9.84,21.121 -16.08,33.363 l -22.8,44.637 h -23.76 l 51.12,-93.118 v -68.64 h 21.12"
         style="fill:#546e7a;fill-opacity:1;fill-rule:nonzero;stroke:none"
         transform="matrix(0.13333333,0,0,-0.13333333,0,319.64)" />
      <path
         id="path105"
         d="M 6378.08,453.059 V 291.301 h 20.88 v 161.758 h -20.88"
         style="fill:#546e7a;fill-opacity:1;fill-rule:nonzero;stroke:none"
         transform="matrix(0.13333333,0,0,-0.13333333,0,319.64)" />
      <path
         id="path106"
         d="M 6435.44,453.059 V 291.301 h 20.88 v 161.758 h -20.88"
         style="fill:#546e7a;fill-opacity:1;fill-rule:nonzero;stroke:none"
         transform="matrix(0.13333333,0,0,-0.13333333,0,319.64)" />
      <path
         id="path107"
         d="m 6551.36,291.301 57.84,161.758 h -22.32 l -27.36,-79.918 c -7.2,-21.121 -13.92,-41.52 -18.48,-60.243 h -0.48 c -4.32,18.961 -10.32,38.641 -17.28,60.481 l -25.2,79.68 h -22.56 l 52.8,-161.758 h 23.04"
         style="fill:#546e7a;fill-opacity:1;fill-rule:nonzero;stroke:none"
         transform="matrix(0.13333333,0,0,-0.13333333,0,319.64)" />
      <path
         id="path108"
         d="m 6626.72,291.301 h 20.88 v 61.679 l 15.36,17.758 53.28,-79.437 h 24.72 l -63.12,93.121 58.56,68.637 h -25.92 l -49.44,-60.719 c -4.08,-5.281 -8.4,-11.039 -12.72,-17.281 h -0.72 v 78 h -20.88 V 291.301"
         style="fill:#e53935;fill-opacity:1;fill-rule:nonzero;stroke:none"
         transform="matrix(0.13333333,0,0,-0.13333333,0,319.64)" />
      <path
         id="path109"
         d="m 6756.8,291.301 h 20.88 v 64.801 c 4.8,-1.204 10.56,-1.442 16.8,-1.442 20.4,0 38.4,6 49.44,17.762 8.16,8.398 12.48,19.918 12.48,34.558 0,14.399 -5.28,26.161 -14.16,33.84 -9.6,8.641 -24.72,13.442 -45.36,13.442 -16.8,0 -30,-1.442 -40.08,-3.121 z m 20.88,144.719 c 3.6,0.96 10.56,1.679 19.68,1.679 23.04,0 38.16,-10.32 38.16,-31.679 0,-22.321 -15.36,-34.559 -40.56,-34.559 -6.96,0 -12.72,0.48 -17.28,1.68 v 62.879"
         style="fill:#1e88e5;fill-opacity:1;fill-rule:nonzero;stroke:none"
         transform="matrix(0.13333333,0,0,-0.13333333,0,319.64)" />
      <path
         id="path110"
         d="m 6947.84,342.18 17.28,-50.879 h 22.32 l -55.2,161.758 h -25.2 l -54.96,-161.758 h 21.6 l 16.8,50.879 z m -53.04,16.32 15.84,46.801 c 3.12,9.84 5.76,19.679 8.16,29.277 h 0.48 c 2.4,-9.359 4.8,-18.957 8.4,-29.519 l 15.84,-46.559 h -48.72"
         style="fill:#546e7a;fill-opacity:1;fill-rule:nonzero;stroke:none"
         transform="matrix(0.13333333,0,0,-0.13333333,0,319.64)" />
      <path
         id="path111"
         d="m 7011.2,291.301 h 90 v 17.519 h -69.12 V 453.059 H 7011.2 V 291.301"
         style="fill:#546e7a;fill-opacity:1;fill-rule:nonzero;stroke:none"
         transform="matrix(0.13333333,0,0,-0.13333333,0,319.64)" />
      <path
         id="path112"
         d="m 7134.08,291.301 h 21.12 v 144 h 49.44 v 17.758 h -119.76 v -17.758 h 49.2 v -144"
         style="fill:#546e7a;fill-opacity:1;fill-rule:nonzero;stroke:none"
         transform="matrix(0.13333333,0,0,-0.13333333,0,319.64)" />
      <path
         id="path113"
         d="m 7306.4,384.422 h -62.88 v 51.117 H 7310 v 17.52 h -87.36 V 291.301 h 90.96 v 17.519 h -70.08 v 58.321 h 62.88 v 17.281"
         style="fill:#546e7a;fill-opacity:1;fill-rule:nonzero;stroke:none"
         transform="matrix(0.13333333,0,0,-0.13333333,0,319.64)" />
      <path
         id="path114"
         d="m 7340.72,291.301 h 20.88 v 70.078 h 19.68 c 18.96,-0.719 27.6,-9.117 32.4,-31.438 4.56,-20.16 8.16,-33.839 10.8,-38.64 h 21.6 c -3.36,6.238 -7.2,21.84 -12.48,44.398 -3.84,16.801 -11.28,28.321 -23.76,32.641 v 0.719 c 17.04,5.761 30.48,19.921 30.48,41.281 0,12.48 -4.56,23.519 -12.72,30.719 -10.08,9.121 -24.48,13.203 -46.8,13.203 -14.4,0 -29.52,-1.203 -40.08,-3.364 z m 20.88,144.961 c 3.36,0.957 10.56,1.918 20.64,1.918 22.08,-0.239 37.2,-9.36 37.2,-30.239 0,-18.48 -14.16,-30.722 -36.48,-30.722 h -21.36 v 59.043"
         style="fill:#e53935;fill-opacity:1;fill-rule:nonzero;stroke:none"
         transform="matrix(0.13333333,0,0,-0.13333333,0,319.64)" />
      <path
         id="path115"
         d="m 5430.56,0.660156 c 8.88,0 14.4,6.480474 14.4,15.121144 0,8.8789 -5.76,15.1171 -14.16,15.1171 -8.4,0 -14.4,-6.2382 -14.4,-15.1171 0,-8.64067 5.76,-15.121144 13.92,-15.121144 h 0.24"
         style="fill:#546e7a;fill-opacity:1;fill-rule:nonzero;stroke:none"
         transform="matrix(0.13333333,0,0,-0.13333333,0,319.64)" />
      <path
         id="path116"
         d="m 5480.24,0.660156 c 8.88,0 14.4,6.480474 14.4,15.121144 0,8.8789 -5.76,15.1171 -14.16,15.1171 -8.4,0 -14.4,-6.2382 -14.4,-15.1171 0,-8.64067 5.76,-15.121144 13.92,-15.121144 h 0.24"
         style="fill:#546e7a;fill-opacity:1;fill-rule:nonzero;stroke:none"
         transform="matrix(0.13333333,0,0,-0.13333333,0,319.64)" />
      <path
         id="path117"
         d="m 5529.92,0.660156 c 8.88,0 14.4,6.480474 14.4,15.121144 0,8.8789 -5.76,15.1171 -14.16,15.1171 -8.4,0 -14.4,-6.2382 -14.4,-15.1171 0,-8.64067 5.76,-15.121144 13.92,-15.121144 h 0.24"
         style="fill:#546e7a;fill-opacity:1;fill-rule:nonzero;stroke:none"
         transform="matrix(0.13333333,0,0,-0.13333333,0,319.64)" />
      <path
         id="path118"
         d="m 3866.29,2157.67 v 89.25 h 965.72 v 82.88 l 127.5,-127.5 -127.5,-127.5 v 82.87 h -965.72"
         style="fill:#546e7a;fill-opacity:1;fill-rule:evenodd;stroke:none"
         transform="matrix(0.13333333,0,0,-0.13333333,0,319.64)" />
      <path
         id="path119"
         d="m 3866.29,2157.67 v 89.25 h 965.72 v 82.88 l 127.5,-127.5 -127.5,-127.5 v 82.87 z"
         style="fill:none;stroke:#546e7a;stroke-width:30;stroke-linecap:round;stroke-linejoin:round;stroke-miterlimit:10;stroke-dasharray:none;stroke-opacity:1"
         transform="matrix(0.13333333,0,0,-0.13333333,0,319.64)" />
      <path
         id="path127"
         d="m 3866.29,577.57 v 89.25 h 965.72 v 82.879 l 127.5,-127.5 -127.5,-127.5 v 82.871 h -965.72"
         style="fill:#546e7a;fill-opacity:1;fill-rule:evenodd;stroke:none"
         transform="matrix(0.13333333,0,0,-0.13333333,0,319.64)" />
      <path
         id="path128"
         d="m 3866.29,577.57 v 89.25 h 965.72 v 82.879 l 127.5,-127.5 -127.5,-127.5 v 82.871 z"
         style="fill:none;stroke:#546e7a;stroke-width:30;stroke-linecap:round;stroke-linejoin:round;stroke-miterlimit:10;stroke-dasharray:none;stroke-opacity:1"
         transform="matrix(0.13333333,0,0,-0.13333333,0,319.64)" />
      <text
         xml:space="preserve"
         style="font-size:32px;fill:#546e7a;fill-opacity:1"
         x="537.71875"
         y="67.46875"
         id="text135"><tspan
           sodipodi:role="line"
           id="tspan135"
           x="537.71875"
           y="67.46875"
           style="font-style:normal;font-variant:normal;font-weight:500;font-stretch:normal;font-size:32px;font-family:'UGent Panno Text';-inkscape-font-specification:'UGent Panno Text, Medium';font-variant-ligatures:normal;font-variant-caps:normal;font-variant-numeric:normal;font-variant-east-asian:normal;fill:#546e7a;fill-opacity:1">Trypsine</tspan></text>
      <text
         xml:space="preserve"
         style="font-size:32px;fill:#546e7a;fill-opacity:1"
         x="537.71875"
         y="278.14874"
         id="text135-9"><tspan
           sodipodi:role="line"
           id="tspan135-7"
           x="537.71875"
           y="278.14874"
           style="font-style:normal;font-variant:normal;font-weight:500;font-stretch:normal;font-size:32px;font-family:'UGent Panno Text';-inkscape-font-specification:'UGent Panno Text, Medium';font-variant-ligatures:normal;font-variant-caps:normal;font-variant-numeric:normal;font-variant-east-asian:normal;fill:#546e7a;fill-opacity:1">Trypsine</tspan></text>
    </g>
  </g>
</svg>
