<?xml version="1.0" encoding="UTF-8" standalone="no"?>
<svg
   width="100%"
   height="100%"
   viewBox="0 0 2948 777"
   version="1.1"
   xml:space="preserve"
   style="fill-rule:evenodd;clip-rule:evenodd;stroke-linecap:round;stroke-linejoin:round;stroke-miterlimit:1.5;"
   id="svg38"
   sodipodi:docname="recipe_book_analogy.svg"
   inkscape:version="1.3.2 (091e20e, 2023-11-25)"
   xmlns:inkscape="http://www.inkscape.org/namespaces/inkscape"
   xmlns:sodipodi="http://sodipodi.sourceforge.net/DTD/sodipodi-0.dtd"
   xmlns="http://www.w3.org/2000/svg"
   xmlns:svg="http://www.w3.org/2000/svg"><defs
   id="defs38" /><sodipodi:namedview
   id="namedview38"
   pagecolor="#ffffff"
   bordercolor="#000000"
   borderopacity="0.25"
   inkscape:showpageshadow="2"
   inkscape:pageopacity="0.0"
   inkscape:pagecheckerboard="0"
   inkscape:deskcolor="#d1d1d1"
   inkscape:zoom="0.20604425"
   inkscape:cx="677.03904"
   inkscape:cy="293.62625"
   inkscape:window-width="1904"
   inkscape:window-height="846"
   inkscape:window-x="0"
   inkscape:window-y="25"
   inkscape:window-maximized="0"
   inkscape:current-layer="svg38" /><text
   xml:space="preserve"
   style="font-size:93.3333px;clip-rule:evenodd;fill:#546e7a;fill-opacity:1;fill-rule:evenodd;stroke-linecap:round;stroke-linejoin:round;stroke-miterlimit:1.5"
   x="696.17969"
   y="605.7005"
   id="text135-7"><tspan
     sodipodi:role="line"
     id="tspan135-4"
     x="696.17969"
     y="605.7005"
     style="font-style:normal;font-variant:normal;font-weight:500;font-stretch:normal;font-size:93.3333px;font-family:'UGent Panno Text';-inkscape-font-specification:'UGent Panno Text, Medium';font-variant-ligatures:normal;font-variant-caps:normal;font-variant-numeric:normal;font-variant-east-asian:normal;fill:#546e7a;fill-opacity:1">Transcriptie</tspan></text><g
   id="g8"><g
     id="g7"><path
       d="M521.708,673.92l-393.433,0c-3.417,0.119 -6.736,-1.155 -9.192,-3.53c-2.462,-2.375 -3.85,-5.646 -3.85,-9.067c-0,-3.417 1.388,-6.687 3.85,-9.062c2.456,-2.375 5.775,-3.65 9.192,-3.53l380.828,-0l-0,-611.03l-380.828,-0c-3.417,0.119 -6.736,-1.155 -9.192,-3.531c-2.462,-2.375 -3.85,-5.645 -3.85,-9.067c-0,-3.416 1.388,-6.686 3.85,-9.061c2.456,-2.376 5.775,-3.65 9.192,-3.531l393.433,0c6.952,0 12.587,5.635 12.587,12.587l-0,636.213c0.005,3.34 -1.323,6.545 -3.682,8.91c-2.359,2.364 -5.564,3.693 -8.905,3.693l0,0.006Z"
       style="fill:#546e7a;fill-rule:nonzero;"
       id="path1" /><path
       d="M576.711,764.379l-518.919,0c-20.644,0 -39.722,-11.019 -50.048,-28.898c-10.326,-17.879 -10.325,-39.907 0,-57.792c10.325,-17.879 29.404,-28.892 50.048,-28.892l70.438,-0c6.79,0.233 12.169,5.802 12.169,12.597c0,6.79 -5.379,12.359 -12.169,12.592l-70.438,0c-11.653,0 -22.417,6.22 -28.248,16.307c-5.824,10.092 -5.824,22.527 0,32.618c5.83,10.092 16.594,16.307 28.248,16.307l506.314,-0l-0,-629.647l-42.407,-0c-6.963,-0 -12.603,-5.645 -12.603,-12.603c-0,-6.963 5.64,-12.603 12.603,-12.603l55.01,0c6.957,0.006 12.592,5.646 12.602,12.603l0,654.83c-0.01,6.958 -5.65,12.592 -12.602,12.592l0.002,-0.011Z"
       style="fill:#546e7a;fill-rule:nonzero;"
       id="path2" /><path
       d="M12.632,719.191c-6.957,-0.011 -12.592,-5.645 -12.603,-12.602l0,-635.478c0.017,-15.542 6.199,-30.445 17.191,-41.431c10.993,-10.987 25.894,-17.169 41.437,-17.18l69.619,0c6.784,0.233 12.163,5.803 12.163,12.597c0,6.79 -5.379,12.359 -12.163,12.592l-69.619,0c-8.861,0 -17.359,3.52 -23.622,9.783c-6.264,6.269 -9.783,14.762 -9.783,23.623l-0,635.491c-0.011,6.963 -5.657,12.603 -12.619,12.603l-0.001,0.002Z"
       style="fill:#546e7a;fill-rule:nonzero;"
       id="path3" /><path
       d="M235.742,487.535c-1.514,-6.846 -8.292,-11.18 -15.154,-9.668c-6.856,1.512 -11.179,8.297 -9.671,15.151c1.694,7.654 1.599,15.331 -0.281,22.801c-1.769,7.068 -5.18,13.811 -9.844,19.502c-4.449,5.428 -3.654,13.439 1.774,17.887c5.427,4.448 13.438,3.654 17.886,-1.774c7.023,-8.569 12.16,-18.739 14.843,-29.421c2.846,-11.332 2.996,-22.931 0.446,-34.478l0.001,0Z"
       style="fill:#546e7a;fill-rule:nonzero;"
       id="path4" /><path
       d="M356.57,340.102c-1.513,-6.846 -8.291,-11.18 -15.153,-9.668c-6.856,1.512 -11.179,8.297 -9.672,15.151c1.692,7.657 1.599,15.331 -0.281,22.8c-1.768,7.068 -5.179,13.811 -9.844,19.503c-4.665,5.692 -10.612,10.361 -17.189,13.483c-6.957,3.314 -14.463,4.912 -22.301,4.753l-149.352,-2.949c-0.309,-0.007 -0.608,0.035 -0.923,0.035c-0.226,0.01 -0.457,-0.002 -0.681,0.027c-11.242,0.009 -22.05,2.363 -32.127,7.155c-9.942,4.725 -18.906,11.76 -25.932,20.333c-2.138,2.609 -3.151,5.957 -2.818,9.314c0.329,3.354 1.983,6.441 4.589,8.576l0.004,0.003l78.523,64.308c5.431,4.445 13.438,3.647 17.886,-1.781c4.449,-5.427 3.651,-13.435 -1.777,-17.883l-0.003,-0.003l-67.421,-55.22c2.48,-1.803 5.118,-3.378 7.864,-4.686c5.742,-2.734 11.875,-4.231 18.249,-4.608l37.907,31.073c5.428,4.448 13.438,3.654 17.887,-1.774c4.448,-5.428 3.653,-13.439 -1.774,-17.887l-13.212,-10.827l112.6,2.221c11.823,0.232 23.166,-2.194 33.729,-7.213c9.942,-4.726 18.906,-11.761 25.931,-20.333c7.026,-8.573 12.153,-18.745 14.841,-29.417c2.845,-11.333 2.998,-22.935 0.451,-34.486l-0.001,-0Z"
       style="fill:#546e7a;fill-rule:nonzero;"
       id="path5" /><path
       d="M299.52,199.729c0.641,2.898 2.218,5.337 4.354,7.088c2.911,2.385 6.842,3.457 10.803,2.583c6.856,-1.512 11.179,-8.297 9.672,-15.151c-1.692,-7.658 -1.599,-15.331 0.28,-22.801c1.769,-7.068 5.18,-13.811 9.845,-19.502c4.448,-5.428 3.653,-13.439 -1.774,-17.887c-5.428,-4.448 -13.439,-3.654 -17.887,1.774c-7.025,8.572 -12.153,18.745 -14.84,29.417c-2.849,11.33 -3,22.929 -0.452,34.479l-0.001,0Z"
       style="fill:#546e7a;fill-rule:nonzero;"
       id="path6" /><path
       d="M462.144,256.528c4.448,-5.428 3.651,-13.435 -1.777,-17.884l-0.003,-0.003l-78.524,-64.307c-5.43,-4.445 -13.437,-3.648 -17.886,1.78c-4.448,5.428 -3.651,13.435 1.777,17.884l0.003,0.002l67.364,55.173c-2.474,1.802 -5.066,3.426 -7.81,4.725c-5.731,2.727 -11.842,4.224 -18.196,4.606l-37.933,-31.089c-5.428,-4.448 -13.439,-3.654 -17.887,1.774c-4.449,5.428 -3.654,13.439 1.774,17.887l13.246,10.855l-112.66,-2.225c-11.827,-0.229 -23.169,2.198 -33.729,7.214c-9.936,4.731 -18.904,11.756 -25.929,20.329l-0.023,0.027c-0.011,0.014 -0.013,0.024 -0.021,0.034c-6.999,8.56 -12.123,18.708 -14.799,29.359c-2.719,10.823 -2.904,21.882 -0.705,32.907c0.019,0.228 0.075,0.446 0.107,0.673c0.062,0.302 0.079,0.603 0.147,0.911c0.012,0.056 0.048,0.096 0.062,0.148c0.299,1.3 0.807,2.541 1.508,3.707c0.053,0.089 0.112,0.171 0.171,0.26c0.704,1.099 1.531,2.132 2.594,3.003l41.639,34.114c5.428,4.448 13.439,3.654 17.887,-1.774c4.449,-5.428 3.654,-13.439 -1.774,-17.887l-37.91,-31.069c-0.881,-6.317 -0.616,-12.628 0.933,-18.798c0.736,-2.934 1.817,-5.791 3.089,-8.56l67.347,55.194c5.428,4.448 13.438,3.654 17.887,-1.774c4.448,-5.428 3.653,-13.439 -1.774,-17.887l-67.354,-55.205c2.486,-1.809 5.09,-3.441 7.846,-4.747c5.715,-2.722 11.807,-4.218 18.142,-4.604l37.965,31.114c5.428,4.448 13.438,3.654 17.886,-1.774c4.449,-5.428 3.654,-13.438 -1.773,-17.887l-13.277,-10.881l112.711,2.226c11.826,0.229 23.169,-2.197 33.728,-7.213c9.936,-4.737 18.903,-11.763 25.932,-20.339l-0.001,0.001Z"
       style="fill:#546e7a;fill-rule:nonzero;"
       id="path7" /></g></g>
    <g
   id="g25"><path
   d="M1792.34,71.431c0,-32.525 -26.406,-58.931 -58.931,-58.931l-471.449,0c-32.525,0 -58.931,26.406 -58.931,58.931l-0,634.028c-0,32.525 26.406,58.931 58.931,58.931l471.449,-0c32.525,-0 58.931,-26.406 58.931,-58.931l0,-634.028Z"
   style="fill:none;stroke:#546e7a;stroke-width:25px;"
   id="path8" />
        <g
   id="g16"><path
   d="M1282.06,441.57c306.872,-0 237.5,-0 237.5,-0"
   style="fill:none;stroke:#546e7a;stroke-width:25px;"
   id="path9" />
            <path
   d="M1582.06,441.57c157.661,-0 122.02,-0 122.02,-0"
   style="fill:none;stroke:#546e7a;stroke-width:25px;"
   id="path10" />
            <path
   d="M1466.2,510.32c306.872,-0 237.5,-0 237.5,-0"
   style="fill:none;stroke:#546e7a;stroke-width:25px;"
   id="path11" />
            <path
   d="M1284.95,510.32c157.661,-0 122.02,-0 122.02,-0"
   style="fill:none;stroke:#546e7a;stroke-width:25px;"
   id="path12" />
            <path
   d="M1284.95,579.07c306.872,-0 237.5,-0 237.5,-0"
   style="fill:none;stroke:#546e7a;stroke-width:25px;"
   id="path13" />
            <path
   d="M1584.95,579.07c157.661,-0 122.02,-0 122.02,-0"
   style="fill:none;stroke:#546e7a;stroke-width:25px;"
   id="path14" />
            <path
   d="M1284.95,647.82c227.743,-0 176.259,-0 176.259,-0"
   style="fill:none;stroke:#546e7a;stroke-width:25px;"
   id="path15" />
            <path
   d="M1497.68,647.82c267.308,-0 206.88,-0 206.88,-0"
   style="fill:none;stroke:#546e7a;stroke-width:25px;"
   id="path16" /></g>
        <path
   d="M1710.42,155.276c-0,-42.896 -34.827,-77.723 -77.723,-77.723l-270.029,0c-42.897,0 -77.723,34.827 -77.723,77.723l-0,155.446c-0,42.897 34.826,77.723 77.723,77.723l270.029,-0c42.896,-0 77.723,-34.826 77.723,-77.723l-0,-155.446Z"
   style="fill:none;stroke:#546e7a;stroke-width:12.5px;"
   id="path17" />
        <path
   d="M1587.4,248.164c2.322,-0.184 4.112,-2.121 4.112,-4.449c-0,-2.327 -1.79,-4.264 -4.112,-4.448c-1.239,-0.097 -2.465,0.327 -3.379,1.172c-0.915,0.844 -1.433,2.031 -1.433,3.276c0,1.245 0.518,2.432 1.433,3.277c0.914,0.845 2.14,1.27 3.379,1.172Z"
   style="fill:#546e7a;fill-rule:nonzero;"
   id="path18" />
        <path
   d="M1436.72,239.988c0,-1.808 -1.09,-3.435 -2.762,-4.126c-1.671,-0.688 -3.592,-0.301 -4.866,0.981c-1.274,1.281 -1.649,3.205 -0.95,4.871c0.7,1.667 2.336,2.747 4.143,2.736c1.182,-0 2.313,-0.47 3.146,-1.309c0.831,-0.837 1.295,-1.972 1.289,-3.153l0,-0Z"
   style="fill:#546e7a;fill-rule:nonzero;"
   id="path19" />
        <path
   d="M1417.79,304.038c-1.807,0 -3.435,1.089 -4.125,2.761c-0.689,1.67 -0.302,3.592 0.98,4.866c1.281,1.274 3.205,1.649 4.871,0.949c1.667,-0.7 2.748,-2.335 2.736,-4.143c-0,-1.181 -0.47,-2.312 -1.309,-3.145c-0.837,-0.831 -1.972,-1.295 -3.153,-1.288l0,0Z"
   style="fill:#546e7a;fill-rule:nonzero;"
   id="path20" />
        <path
   d="M1502.16,204.374c1.803,0 3.431,-1.086 4.121,-2.754c0.69,-1.667 0.309,-3.586 -0.966,-4.862c-1.276,-1.276 -3.196,-1.657 -4.862,-0.967c-1.669,0.69 -2.755,2.318 -2.755,4.122c-0,2.465 1.997,4.461 4.462,4.461Z"
   style="fill:#546e7a;fill-rule:nonzero;"
   id="path21" />
        <path
   d="M1523.33,138.858c-62.472,-38.633 -110.335,-28.629 -112.359,-28.074c-1.042,0.232 -1.966,0.833 -2.604,1.689c-0.499,0.692 -4.933,7.039 -5.821,20.73c-0.305,4.684 1.607,13.249 7.095,17.045l-20.84,201.654c-0.154,1.613 0.576,3.182 1.912,4.103c0.733,0.506 1.603,0.777 2.494,0.775c0.702,-0.004 1.392,-0.167 2.024,-0.472l177.181,-91.458c2.519,0.93 5.185,1.39 7.87,1.359c2.879,-0.024 5.74,-0.433 8.508,-1.22c6.984,-1.899 13.066,-6.221 17.155,-12.195c0.433,-0.708 0.654,-1.525 0.638,-2.355c-0.139,-2.329 -1.995,-61.279 -83.253,-111.581l-0,-0Zm-124.964,205.866l20.038,-193.365c10.06,-1.136 43.346,-2.41 84.168,22.838c54.682,33.866 63.605,72.973 64.907,83.475l-169.113,87.052Zm187.96,-88.103c-3.217,1.036 -6.652,1.189 -9.949,0.442c-1.274,-11.5 -9.95,-53.741 -69.286,-90.379c-47.393,-29.351 -84.807,-24.942 -92.429,-23.779c-1.941,-1.137 -3.63,-6.07 -3.437,-9.229c0.247,-5.036 1.442,-9.983 3.52,-14.578c9.173,-1.357 51.243,-5.21 103.93,27.409c70.148,43.32 77.993,93.953 78.849,102.851c-2.898,3.513 -6.807,6.047 -11.198,7.261l-0,0.002Z"
   style="fill:#546e7a;fill-rule:nonzero;"
   id="path22" />
        <path
   d="M1453.74,170.761c-7.439,-0 -14.572,2.954 -19.833,8.214c-5.26,5.26 -8.214,12.394 -8.214,19.833c-0,7.439 2.954,14.572 8.214,19.831c5.261,5.26 12.394,8.216 19.833,8.216c7.439,0 14.572,-2.956 19.833,-8.216c5.258,-5.259 8.214,-12.392 8.214,-19.831c-0.007,-7.437 -2.965,-14.567 -8.224,-19.826c-5.258,-5.258 -12.388,-8.216 -19.823,-8.221Zm0,47.114c-5.094,0 -9.979,-2.024 -13.581,-5.626c-3.601,-3.601 -5.625,-8.486 -5.625,-13.58c-0,-5.094 2.024,-9.98 5.625,-13.581c3.602,-3.602 8.487,-5.626 13.581,-5.626c5.094,0 9.979,2.025 13.581,5.626c3.601,3.602 5.625,8.487 5.625,13.581c0.029,5.115 -1.981,10.031 -5.585,13.662c-3.603,3.63 -8.506,5.676 -13.621,5.683l0,-0.139Z"
   style="fill:#546e7a;fill-rule:nonzero;"
   id="path23" />
        <path
   d="M1515.18,222.859c-5.343,0 -10.468,2.123 -14.247,5.902c-3.778,3.78 -5.903,8.903 -5.903,14.248c0,5.344 2.125,10.468 5.903,14.246c3.779,3.78 8.904,5.902 14.247,5.902c5.344,0 10.469,-2.122 14.246,-5.902c3.78,-3.777 5.903,-8.902 5.903,-14.246c-0.008,-5.341 -2.133,-10.463 -5.91,-14.24c-3.778,-3.777 -8.897,-5.902 -14.239,-5.909l0,-0.001Zm0,31.456l0,0.002c-3,0.008 -5.881,-1.179 -8.007,-3.296c-2.127,-2.117 -3.323,-4.994 -3.329,-7.994c-0.004,-3 1.183,-5.879 3.302,-8.004c2.121,-2.124 4.997,-3.319 7.997,-3.321c3.001,-0.004 5.879,1.187 8.002,3.308c2.123,2.121 3.316,4.999 3.316,7.999c-0,2.993 -1.189,5.866 -3.304,7.987c-2.113,2.119 -4.982,3.313 -7.977,3.321l0,-0.002Z"
   style="fill:#546e7a;fill-rule:nonzero;"
   id="path24" />
        <path
   d="M1448.7,251.796c-6.351,0.008 -12.437,2.537 -16.921,7.029c-4.485,4.495 -7.002,10.587 -6.997,16.936c0.004,6.348 2.531,12.436 7.023,16.923c4.491,4.487 10.583,7.006 16.932,7.004c6.348,-0.002 12.436,-2.527 16.925,-7.018c4.489,-4.491 7.01,-10.579 7.01,-16.929c-0.006,-6.353 -2.537,-12.443 -7.031,-16.933c-4.495,-4.489 -10.589,-7.012 -16.941,-7.012l-0,0Zm-0,39.049l-0,0.002c-4.006,0 -7.849,-1.593 -10.681,-4.425c-2.832,-2.832 -4.423,-6.673 -4.423,-10.681c-0,-4.006 1.591,-7.847 4.423,-10.679c2.832,-2.832 6.675,-4.425 10.681,-4.425c4.006,-0 7.847,1.593 10.679,4.425c2.834,2.832 4.425,6.673 4.425,10.679c0.014,4.019 -1.57,7.878 -4.404,10.728c-2.832,2.849 -6.683,4.454 -10.7,4.461l-0,-0.085Z"
   style="fill:#546e7a;fill-rule:nonzero;"
   id="path25" /></g>
    <g
   id="g33"><path
   d="M2900.74,425.049c5.604,-0.443 9.925,-5.119 9.925,-10.738c0,-5.618 -4.321,-10.294 -9.925,-10.737c-2.991,-0.233 -5.95,0.789 -8.157,2.828c-2.207,2.039 -3.458,4.904 -3.458,7.909c0,3.006 1.251,5.871 3.458,7.91c2.207,2.039 5.166,3.066 8.157,2.828Z"
   style="fill:#546e7a;fill-rule:nonzero;"
   id="path26" />
        <path
   d="M2537.03,405.314c-0,-4.363 -2.632,-8.292 -6.668,-9.958c-4.032,-1.661 -8.671,-0.728 -11.746,2.366c-3.075,3.094 -3.98,7.737 -2.291,11.759c1.689,4.023 5.637,6.631 10,6.603c2.851,0 5.581,-1.134 7.592,-3.159c2.007,-2.02 3.127,-4.76 3.113,-7.611l-0,0Z"
   style="fill:#546e7a;fill-rule:nonzero;"
   id="path27" />
        <path
   d="M2491.34,559.919c-4.363,-0 -8.292,2.627 -9.958,6.664c-1.661,4.031 -0.728,8.67 2.366,11.745c3.094,3.075 7.737,3.98 11.76,2.291c4.022,-1.689 6.631,-5.637 6.603,-10c-0,-2.851 -1.134,-5.581 -3.159,-7.592c-2.021,-2.007 -4.76,-3.127 -7.611,-3.108l-0.001,-0Z"
   style="fill:#546e7a;fill-rule:nonzero;"
   id="path28" />
        <path
   d="M2694.97,319.351c4.353,-0 8.282,-2.623 9.948,-6.65c1.666,-4.022 0.747,-8.656 -2.333,-11.736c-3.08,-3.08 -7.713,-3.999 -11.736,-2.333c-4.027,1.666 -6.649,5.595 -6.649,9.949c-0,5.95 4.82,10.77 10.77,10.77Z"
   style="fill:#546e7a;fill-rule:nonzero;"
   id="path29" />
        <path
   d="M2746.09,161.208c-150.794,-93.253 -266.323,-69.105 -271.209,-67.766c-2.515,0.56 -4.746,2.011 -6.286,4.078c-1.204,1.671 -11.908,16.991 -14.051,50.038c-0.737,11.307 3.878,31.98 17.126,41.143l-50.303,486.751c-0.373,3.892 1.391,7.681 4.615,9.902c1.769,1.223 3.868,1.876 6.02,1.872c1.694,-0.01 3.359,-0.402 4.885,-1.139l427.678,-220.762c6.081,2.245 12.516,3.355 18.997,3.281c6.948,-0.056 13.855,-1.046 20.536,-2.945c16.859,-4.582 31.54,-15.016 41.41,-29.436c1.045,-1.708 1.577,-3.682 1.54,-5.683c-0.336,-5.623 -4.816,-147.915 -200.956,-269.334l-0.002,-0Zm-301.635,496.916l48.366,-466.741c24.284,-2.744 104.63,-5.819 203.166,55.125c131.991,81.746 153.529,176.143 156.671,201.493l-408.203,210.123Zm453.696,-212.662c-7.765,2.501 -16.057,2.87 -24.014,1.069c-3.075,-27.76 -24.017,-129.722 -167.244,-218.158c-114.397,-70.845 -204.706,-60.205 -223.103,-57.397c-4.685,-2.743 -8.763,-14.652 -8.297,-22.276c0.598,-12.157 3.482,-24.098 8.498,-35.19c22.142,-3.275 123.689,-12.575 250.865,66.161c169.323,104.564 188.257,226.782 190.324,248.261c-6.995,8.479 -16.431,14.597 -27.028,17.527l-0.001,0.003Z"
   style="fill:#546e7a;fill-rule:nonzero;"
   id="path30" />
        <path
   d="M2578.11,238.214c-17.956,-0 -35.175,7.13 -47.872,19.828c-12.698,12.697 -19.828,29.916 -19.828,47.872c-0,17.956 7.13,35.175 19.828,47.868c12.697,12.697 29.916,19.832 47.872,19.832c17.956,0 35.175,-7.135 47.872,-19.832c12.693,-12.693 19.828,-29.912 19.828,-47.868c-0.018,-17.951 -7.158,-35.162 -19.85,-47.854c-12.693,-12.693 -29.902,-19.833 -47.85,-19.846Zm0,113.724c-12.296,0 -24.088,-4.885 -32.781,-13.579c-8.693,-8.693 -13.579,-20.485 -13.579,-32.781c0,-12.296 4.886,-24.088 13.579,-32.781c8.694,-8.693 20.485,-13.579 32.781,-13.579c12.296,0 24.088,4.886 32.781,13.579c8.693,8.694 13.579,20.485 13.579,32.781c0.07,12.348 -4.783,24.215 -13.481,32.977c-8.698,8.763 -20.533,13.701 -32.879,13.719l0,-0.336Z"
   style="fill:#546e7a;fill-rule:nonzero;"
   id="path31" />
        <path
   d="M2726.41,363.969c-12.898,0 -25.268,5.124 -34.391,14.247c-9.118,9.123 -14.247,21.488 -14.247,34.391c0,12.898 5.129,25.268 14.247,34.387c9.123,9.122 21.493,14.246 34.391,14.246c12.898,0 25.269,-5.123 34.387,-14.246c9.123,-9.119 14.247,-21.489 14.247,-34.387c-0.019,-12.893 -5.147,-25.255 -14.265,-34.372c-9.118,-9.118 -21.475,-14.247 -34.369,-14.265l0,-0.001Zm0,75.928l0,0.004c-7.242,0.019 -14.195,-2.846 -19.328,-7.956c-5.133,-5.11 -8.022,-12.054 -8.036,-19.295c-0.009,-7.242 2.856,-14.191 7.97,-19.319c5.12,-5.129 12.064,-8.012 19.305,-8.017c7.242,-0.009 14.191,2.865 19.314,7.984c5.124,5.119 8.003,12.068 8.003,19.31c0,7.223 -2.87,14.158 -7.975,19.277c-5.1,5.114 -12.024,7.998 -19.253,8.017l0,-0.005Z"
   style="fill:#546e7a;fill-rule:nonzero;"
   id="path32" />
        <path
   d="M2565.93,433.817c-15.329,0.019 -30.019,6.123 -40.844,16.967c-10.826,10.849 -16.901,25.554 -16.888,40.878c0.009,15.324 6.108,30.019 16.952,40.849c10.84,10.831 25.544,16.911 40.869,16.906c15.324,-0.005 30.019,-6.099 40.854,-16.939c10.835,-10.84 16.92,-25.535 16.92,-40.864c-0.014,-15.334 -6.122,-30.033 -16.972,-40.873c-10.849,-10.835 -25.558,-16.925 -40.891,-16.925l0,0.001Zm0,94.256l0,0.005c-9.669,0 -18.945,-3.845 -25.782,-10.681c-6.836,-6.837 -10.676,-16.108 -10.676,-25.782c-0,-9.669 3.84,-18.941 10.676,-25.777c6.837,-6.837 16.113,-10.682 25.782,-10.682c9.669,0 18.941,3.846 25.777,10.682c6.841,6.836 10.682,16.108 10.682,25.777c0.032,9.701 -3.79,19.015 -10.63,25.894c-6.837,6.878 -16.132,10.751 -25.829,10.77l0,-0.206Z"
   style="fill:#546e7a;fill-rule:nonzero;"
   id="path33" /></g>
    <path
   d="M672.685,432.195l0,-87.5l321.875,0l0,-81.25l125,125l-125,125l0,-81.25l-321.875,-0Z"
   style="fill:none;stroke:#546e7a;stroke-width:12.5px;"
   id="path34" />
    <path
   d="M1883.82,432.195l-0,-87.5l321.875,0l-0,-81.25l125,125l-125,125l-0,-81.25l-321.875,-0Z"
   style="fill:none;stroke:#546e7a;stroke-width:12.5px;"
   id="path35" />
    
    <text
   xml:space="preserve"
   style="font-size:93.3333px;fill:#546e7a;fill-opacity:1"
   x="1942.2048"
   y="605.74762"
   id="text135"><tspan
     sodipodi:role="line"
     id="tspan135"
     x="1942.2048"
     y="605.74762"
     style="font-style:normal;font-variant:normal;font-weight:500;font-stretch:normal;font-size:93.3333px;font-family:'UGent Panno Text';-inkscape-font-specification:'UGent Panno Text, Medium';font-variant-ligatures:normal;font-variant-caps:normal;font-variant-numeric:normal;font-variant-east-asian:normal;fill:#546e7a;fill-opacity:1">Translatie</tspan></text></svg>
